# xmcd
#
# Track frame offsets: 
#        187
#        12857
#        31225
#        49215
#        71582
#        87045
#        109600
#        127957
#        146165
#        164842
#        187075
#        206132
#
# Disc length: 3256 seconds
#
# Revision: 0
# Processed by: cddbd v1.5PL3 Copyright (c) Steve Scherf et al.
# Submitted via: ExactAudioCopy v0.95a3
#
DISCID=ac0cb60c
DTITLE=Inner City - Big Fun
DYEAR=1990
DGENRE=House
TTITLE0=Inner City Theme
TTITLE1=Paradisse
TTITLE2=Ain't Nobody Better 
TTITLE3=Power Of Passion
TTITLE4=Big Fun
TTITLE5=Do You Love What You Feel
TTITLE6=Good Life
TTITLE7=Set Your Body Free
TTITLE8=And I Do
TTITLE9=Secrets Of The Mind
TTITLE10=Whatcha Gonna Do With My Lovin' - Radio Mix [Bonus Track]
TTITLE11=Whatcha Gonna Do With My Lovin' - Def Mix [Bonus Track]
EXTD=
EXTT0=
EXTT1=
EXTT2=
EXTT3=
EXTT4=
EXTT5=
EXTT6=
EXTT7=
EXTT8=
EXTT9=
EXTT10=
EXTT11=
PLAYORDER=
